<svg width="1080" height="1080" viewBox="0 0 1080 1080" fill="none" xmlns="http://www.w3.org/2000/svg">
<rect width="1080" height="1080" rx="540" fill="#212B3B"/>
<path d="M776.696 506.292C787.823 506.292 796.725 509.573 803.636 516.252C810.43 522.93 813.827 532.772 813.827 545.895V597.215H787.823V549.879C787.823 542.732 786.3 537.459 783.138 533.944C779.975 530.429 775.524 528.671 769.668 528.671C763.108 528.671 757.954 530.663 753.972 534.764C750.106 538.865 748.115 544.841 748.115 552.808V597.215H722.111V507.581H746.944V518.126C750.34 514.377 754.674 511.448 759.711 509.339C764.982 507.347 770.605 506.292 776.696 506.292Z" fill="white"/>
<path d="M655.814 577.296C662.491 577.296 667.996 575.07 672.213 570.5C676.43 566.048 678.655 559.955 678.655 552.456C678.655 544.958 676.547 538.865 672.213 534.413C667.996 529.96 662.491 527.617 655.814 527.617C649.138 527.617 643.632 529.843 639.298 534.413C634.964 538.865 632.856 544.958 632.856 552.456C632.856 559.955 634.964 566.048 639.298 570.5C643.632 574.953 649.138 577.296 655.814 577.296ZM655.814 598.504C646.326 598.504 637.893 596.512 630.396 592.645C622.9 588.661 617.043 583.272 612.826 576.242C608.609 569.212 606.501 561.361 606.501 552.456C606.501 543.552 608.609 535.584 612.826 528.671C617.043 521.641 622.9 516.252 630.396 512.268C637.893 508.284 646.326 506.409 655.814 506.409C665.302 506.409 673.736 508.401 681.115 512.268C688.612 516.252 694.351 521.641 698.568 528.671C702.785 535.701 704.893 543.552 704.893 552.456C704.893 561.361 702.785 569.329 698.568 576.242C694.351 583.272 688.494 588.661 681.115 592.645C673.618 596.629 665.185 598.504 655.814 598.504Z" fill="white"/>
<path d="M589.049 507.58H563.045V597.214H589.049V507.58Z" fill="white"/>
<path d="M489.836 571.555C496.747 571.555 502.37 569.563 506.704 565.462C511.038 561.361 513.263 556.089 513.263 549.527C513.263 542.966 511.038 537.693 506.704 533.592C502.37 529.492 496.63 527.5 489.836 527.5C482.925 527.5 477.303 529.492 472.852 533.592C468.401 537.693 466.175 542.966 466.175 549.527C466.175 556.089 468.401 561.361 472.852 565.462C477.186 569.563 482.925 571.555 489.836 571.555ZM538.915 507.581V582.217C538.915 598.621 534.699 610.806 526.148 618.891C517.597 626.858 505.064 630.841 488.665 630.841C479.997 630.841 471.798 629.787 464.067 627.678C456.336 625.569 449.894 622.523 444.74 618.539L460.787 603.776C463.364 605.182 466.175 606.354 469.338 607.408C475.078 609.283 480.934 610.103 486.674 610.103C495.693 610.103 502.252 608.111 506.586 604.01C510.803 599.91 513.029 593.817 513.029 585.615V581.749C506.235 589.13 496.864 592.88 484.682 592.88C476.483 592.88 468.987 591.122 462.076 587.49C455.282 583.858 449.894 578.819 445.794 572.258C441.812 565.696 439.82 558.198 439.82 549.644C439.82 541.091 441.812 533.592 445.794 527.031C449.777 520.47 455.165 515.431 462.076 511.799C468.869 508.167 476.366 506.409 484.682 506.409C497.684 506.409 507.523 510.627 514.317 519.181V507.698H538.915V507.581Z" fill="white"/>
<path d="M382.775 525.977C376.918 525.977 371.998 527.617 367.899 531.015C363.916 534.295 361.456 538.865 360.519 544.723H404.679C403.742 539.099 401.399 534.53 397.299 531.132C393.434 527.617 388.514 525.977 382.775 525.977ZM429.16 552.808C429.16 553.16 429.043 555.503 428.692 559.838H360.871C362.042 565.345 364.97 569.797 369.539 572.961C374.107 576.124 379.729 577.765 386.523 577.765C391.208 577.765 395.308 577.062 398.939 575.656C400.345 575.07 401.867 574.367 403.156 573.547L417.447 589.13C409.481 595.457 398.822 598.621 385.82 598.621C375.747 598.621 366.727 596.629 358.997 592.762C351.266 588.779 345.175 583.389 340.958 576.359C336.741 569.329 334.633 561.478 334.633 552.574C334.633 543.786 336.741 535.936 340.841 528.789C345.058 521.758 350.68 516.252 357.942 512.268C365.205 508.284 373.287 506.409 382.306 506.409C391.091 506.409 399.056 508.284 406.084 512.034C413.23 515.783 418.735 521.173 422.835 528.32C427.169 535.233 429.16 543.435 429.16 552.808Z" fill="white"/>
<path d="M171.702 525.977C165.846 525.977 160.926 527.617 156.826 531.015C152.844 534.295 150.384 538.865 149.447 544.723H193.606C192.669 539.099 190.327 534.53 186.227 531.132C182.361 527.617 177.442 525.977 171.702 525.977ZM218.087 552.808C218.087 553.16 217.97 555.503 217.619 559.838H149.798C150.97 565.345 153.898 569.797 158.466 572.961C163.034 576.124 168.657 577.765 175.451 577.765C180.136 577.765 184.236 577.062 187.867 575.656C189.272 575.07 190.795 574.367 192.084 573.547L206.374 589.13C198.409 595.457 187.75 598.621 174.748 598.621C164.674 598.621 155.655 596.629 147.924 592.762C140.194 588.779 134.103 583.389 129.886 576.359C125.669 569.329 123.561 561.478 123.561 552.574C123.561 543.786 125.669 535.936 129.769 528.789C133.985 521.758 139.608 516.252 146.87 512.268C154.132 508.284 162.215 506.409 171.234 506.409C180.019 506.409 187.984 508.284 195.012 512.034C202.157 515.783 207.662 521.173 211.762 528.32C216.096 535.233 218.087 543.435 218.087 552.808Z" fill="white"/>
<path d="M317.298 473.602H291.294V597.214H317.298V473.602Z" fill="white"/>
<path d="M241.397 561.478C244.794 564.876 249.479 566.985 254.633 566.985C259.787 566.985 264.472 564.876 267.869 561.478C271.266 558.08 273.374 553.276 273.374 548.004C273.374 542.731 271.266 538.044 267.869 534.529C264.472 531.131 259.787 529.022 254.633 529.022C249.479 529.022 244.794 531.131 241.397 534.646C238 538.044 235.892 542.848 235.892 548.121C235.892 553.276 238 558.08 241.397 561.478Z" fill="#00ABE7"/>
<path d="M564.685 490.357C567.613 493.287 571.596 495.161 576.047 495.161C580.498 495.161 584.48 493.287 587.409 490.357C590.337 487.428 592.094 483.327 592.094 478.758C592.094 474.305 590.337 470.205 587.409 467.158C584.48 464.229 580.498 462.354 576.047 462.354C571.596 462.354 567.613 464.229 564.685 467.158C561.756 470.087 559.999 474.188 559.999 478.758C559.882 483.327 561.756 487.428 564.685 490.357Z" fill="white"/>
<path d="M892.716 499.965L885.337 477.82H836.317L828.937 499.965H802.758L845.804 376.938H875.849L919.071 499.965H892.716ZM844.047 455.148H877.782L860.915 404.883L844.047 455.148ZM977.881 440.209C987.838 440.209 995.803 442.962 1001.78 448.469C1007.87 453.859 1010.91 461.065 1010.91 470.087C1010.91 479.109 1007.87 486.373 1001.78 491.88C995.803 497.27 987.838 499.965 977.881 499.965H937.997V433.882H914.102V412.088H960.663V440.209H977.881ZM977.881 479.929C981.044 479.929 983.621 479.05 985.612 477.293C987.72 475.418 988.775 473.016 988.775 470.087C988.775 467.158 987.72 464.756 985.612 462.881C983.621 461.006 981.044 460.069 977.881 460.069H960.663V479.929H977.881Z" fill="white"/>
</svg>
